<svg xmlns="http://www.w3.org/2000/svg" width="46" height="46" viewBox="0 0 46 46" fill="none">
<path d="M28.6888 7.33493C27.2261 7.50384 25.1561 8.79399 24.1283 10.174C23.5353 10.9646 23.1867 11.7193 22.8848 12.8549L22.7339 13.4227L22.7411 14.0265C22.7483 14.3571 22.7662 14.6662 22.7842 14.7165C22.8309 14.8351 22.9208 14.8531 23.5533 14.8566C24.078 14.8602 24.1103 14.8566 24.5595 14.7237C25.7598 14.3751 26.6403 13.8504 27.2656 13.1065C27.4166 12.9232 27.643 12.6788 27.7616 12.5566C28.1569 12.1685 28.6636 11.306 28.9439 10.5585C29.2242 9.80743 29.35 9.11024 29.386 8.11837L29.4075 7.48227L29.3141 7.38884C29.2099 7.28462 29.1524 7.28102 28.6888 7.33493Z" fill="#636D5B"/>
<path d="M28.3544 14.7635C27.6428 14.7994 25.7273 15.3313 24.3509 15.8703C23.5172 16.1974 23.5172 16.1974 23.3519 16.2261C23.0644 16.2728 22.36 16.068 21.1489 15.5792C20.5056 15.3241 19.8444 15.13 18.8669 14.9072C18.4572 14.8174 17.778 14.8066 17.4833 14.8892C17.3647 14.9216 16.991 14.9971 16.6531 15.0546C15.9272 15.1839 15.5175 15.3097 14.9713 15.5792C13.3217 16.3842 12.1969 17.5414 11.3057 19.3527C10.9103 20.1505 10.6192 20.9303 10.4036 21.7605C10.0838 22.9931 10.0766 25.3578 10.3892 26.7917C10.4252 26.9678 10.4575 27.1763 10.4575 27.2589C10.4575 27.4314 10.4899 27.5608 10.7917 28.7503C11.0721 29.85 11.0433 29.7602 11.5788 31.1042C12.3299 32.991 12.5671 33.4078 14.1016 35.5246C14.7305 36.3906 15.0503 36.786 15.5139 37.2567C15.9991 37.7527 16.3908 38.0402 16.9442 38.3133C17.5695 38.6188 17.8427 38.6871 18.4177 38.6835C19.1544 38.6835 19.7474 38.5325 20.8758 38.0581C21.5874 37.7599 21.6341 37.7455 22.9278 37.4796C23.3159 37.3969 23.6753 37.4041 24.2216 37.4939C24.4084 37.5227 24.6888 37.5658 24.8397 37.5874C25.1452 37.6305 25.4542 37.7311 26.252 38.051C27.2152 38.4391 27.8944 38.6116 28.6059 38.6547C29.6409 38.7194 30.64 38.2594 31.7073 37.2352C32.7962 36.1822 33.8133 34.7411 34.8411 32.7969C35.1178 32.2722 35.5598 31.1977 35.6353 30.8742C35.6676 30.7449 35.7215 30.5831 35.7611 30.5185C35.797 30.4538 35.8294 30.3639 35.8294 30.3244C35.8294 30.195 35.567 29.9902 35.1034 29.7566C34.2301 29.3074 33.3712 28.5383 32.7926 27.6722C32.3794 27.0505 31.9625 26.1197 31.8583 25.5699C31.6822 24.6642 31.6319 23.6724 31.7325 22.9824C31.7577 22.8027 31.8475 22.4253 31.9337 22.1378C32.3039 20.8908 32.5591 20.3913 33.1376 19.7731C33.3137 19.5899 33.4575 19.421 33.4575 19.4066C33.4575 19.3455 34.338 18.6088 34.5536 18.4902C34.6722 18.4219 34.8231 18.3177 34.8878 18.253C35.0855 18.0589 35.0567 17.9835 34.5608 17.4013C33.8959 16.6214 33.0586 15.9817 32.0739 15.5038C31.4594 15.2055 31.0353 15.0581 30.4423 14.936C29.835 14.8066 28.9294 14.7311 28.3544 14.7635Z" fill="#636D5B"/>
</svg>