<svg xmlns="http://www.w3.org/2000/svg" width="84" height="42" viewBox="0 0 84 42" fill="none">
  <path d="M9.56137 7.29107C7.12669 7.57325 4.92169 8.66263 3.13012 10.4739C1.56169 12.062 0.564186 13.9717 0.150748 16.1767C-0.0198765 17.0823 -0.000189029 18.9198 0.190123 19.8123C0.498561 21.2692 1.01044 22.5358 1.752 23.6579C3.50419 26.3223 6.08981 27.9826 9.28575 28.4879C10.1454 28.6258 12.0289 28.5929 12.9411 28.4289C16.5439 27.7595 19.2083 25.5283 20.3042 22.247C20.6848 21.092 20.7701 20.5014 20.7636 18.8673C20.7636 18.0339 20.7308 17.2661 20.6914 17.1611L20.6323 16.9642H15.7433H10.8607V18.4079V19.8517L14.3323 19.8714L17.7973 19.8845L17.7514 20.2586C17.6923 20.7508 17.4429 21.6039 17.2198 22.0895C16.2223 24.2683 13.7745 25.6595 10.9198 25.6595C7.97325 25.6595 5.45981 24.1698 4.07512 21.5908C3.14325 19.8451 2.95294 17.4958 3.58294 15.4745C4.4295 12.7839 6.72637 10.7561 9.47606 10.2704C10.2898 10.1326 11.6286 10.1392 12.3701 10.2967C13.5645 10.5461 14.772 11.1104 15.6251 11.8258C15.8745 12.0358 16.0976 12.1998 16.1239 12.1998C16.2092 12.1867 18.1123 10.1917 18.1123 10.1195C18.1123 10.0408 17.2854 9.35825 16.767 9.01044C14.7326 7.652 12.0289 7.00232 9.56137 7.29107Z" fill="#636D5B"/>
  <path d="M67.0161 18.0597L67.0357 28.1857L68.532 28.1988L70.0217 28.2119V18.0794V7.94035H68.5123H67.0029L67.0161 18.0597Z" fill="#636D5B"/>
  <path d="M28.12 14.8713C27.431 14.9566 26.8797 15.0616 26.4531 15.2059C23.5131 16.1838 21.6756 18.8678 21.8069 21.985C21.9578 25.5222 24.5435 28.2456 28.0347 28.5409C30.9353 28.7837 33.4619 27.4581 34.7678 25.0038C35.936 22.8053 35.8047 19.885 34.4463 17.8441C34.0263 17.2272 33.206 16.4003 32.6416 16.0394C31.3094 15.1863 29.485 14.7138 28.12 14.8713ZM29.8263 17.7259C30.7253 18.0016 31.6507 18.7891 32.0772 19.6356C32.7203 20.9022 32.7072 22.5756 32.0575 23.8159C30.581 26.6247 26.5975 26.5328 25.2194 23.6584C24.6485 22.4575 24.6681 20.9219 25.2588 19.7209C26.1119 18.0016 28.0216 17.1681 29.8263 17.7259Z" fill="#636D5B"/>
  <path d="M42.82 14.9038C39.8143 15.2188 37.3665 17.5747 36.8809 20.6263C36.7694 21.3219 36.8284 22.7197 37.0056 23.376C37.5044 25.2791 38.6003 26.7491 40.2081 27.6679C41.1268 28.1929 41.9537 28.4422 43.0759 28.5407C45.7009 28.7704 48.0765 27.6547 49.4809 25.5351C50.5243 23.9666 50.859 21.696 50.3275 19.7535C50.1503 19.0972 49.6384 18.0472 49.2643 17.5485C48.1618 16.0982 46.3834 15.1138 44.4737 14.9038C43.7715 14.8251 43.5812 14.8251 42.82 14.9038ZM44.7559 17.6929C45.7337 17.9685 46.6459 18.7429 47.1053 19.6879C48.0568 21.6304 47.5318 24.006 45.9043 25.1741C44.0275 26.5063 41.409 25.8763 40.3393 23.8354C39.729 22.6804 39.6634 21.1972 40.1556 19.9569C40.8775 18.1522 42.8725 17.1744 44.7559 17.6929Z" fill="#636D5B"/>
  <path d="M57.7299 14.9036C57.0277 14.9758 56.5093 15.1267 55.7874 15.4614C53.4709 16.5442 51.9746 18.8214 51.8631 21.4596C51.7778 23.4611 52.4603 25.2396 53.8384 26.6111C55.2887 28.0549 57.1984 28.7636 59.0556 28.5471C60.1449 28.4224 60.9324 28.068 61.7265 27.3461L62.1465 26.9589V27.7136C62.1465 29.0524 61.9693 29.8464 61.523 30.5486C60.2368 32.5633 57.0671 32.583 55.5643 30.588C55.4003 30.3649 55.2099 30.0696 55.1509 29.9252C55.0853 29.7808 55.0065 29.6627 54.9803 29.6627C54.9474 29.6627 54.3503 29.9055 53.6481 30.1943L52.3684 30.7324L52.6375 31.2311C53.5496 32.9243 55.0787 34.1449 56.8637 34.5911C57.6249 34.7814 59.3443 34.8011 60.0859 34.6305C63.0652 33.948 64.7058 31.8414 64.9618 28.383C65.0077 27.8383 65.034 24.9771 65.034 21.3743V15.2908H63.5902H62.1465V15.8486V16.4064L61.674 16.0127C60.624 15.1267 59.2327 14.7396 57.7299 14.9036ZM59.5543 17.6664C60.0531 17.7911 60.7224 18.198 61.1752 18.6442C61.9955 19.4646 62.3893 20.6196 62.3302 22.0108C62.2777 23.1658 61.9496 23.9796 61.2409 24.7474C60.2893 25.7777 58.8521 26.1452 57.5331 25.6989C55.9515 25.1674 54.9803 23.8155 54.8818 22.0174C54.7243 19.1561 57.0212 17.0233 59.5543 17.6664Z" fill="#636D5B"/>
  <path d="M76.8602 14.91C74.9374 15.179 73.1064 16.5047 72.2074 18.2765C71.3805 19.8909 71.1902 22.0237 71.7021 23.8087C72.4699 26.4731 74.6683 28.2647 77.5099 28.5534C79.4392 28.7437 81.2308 28.1662 82.727 26.8603C83.0683 26.5584 83.8033 25.7381 83.8558 25.6003C83.8689 25.5609 81.992 24.2812 81.5983 24.0647C81.5589 24.0384 81.3817 24.1959 81.2111 24.419C80.4564 25.3837 79.4261 25.8628 78.1267 25.8628C76.9914 25.8628 76.1908 25.5347 75.5149 24.8062C75.1736 24.4387 74.7667 23.8415 74.8192 23.7956C74.8324 23.789 75.2458 23.6119 75.7314 23.415C77.1949 22.8112 83.9674 20.0025 83.9805 19.9894C84.0264 19.95 83.2586 18.2831 83.0092 17.85C82.6024 17.1675 81.5655 16.124 80.8502 15.6909C79.6952 14.9887 78.258 14.7065 76.8602 14.91ZM78.783 17.6006C79.1177 17.6859 79.5049 17.8828 79.8199 18.1256C80.0758 18.329 80.4958 18.8869 80.4367 18.9394C80.4171 18.959 79.3605 19.4119 78.0808 19.9434C76.8077 20.4815 75.4427 21.0525 75.0555 21.2165C74.2417 21.5578 74.2417 21.5578 74.3139 20.9147C74.4321 19.7728 75.1014 18.7162 76.1317 18.0469C76.9455 17.5219 77.8577 17.3644 78.783 17.6006Z" fill="#636D5B"/>
</svg>